# File created by Blade
# Date/Time:  Tue Jan 27 17:01:45 2015
#---------------------------------------------------------
:version 1.10
:name HOM
:units
  mass 1.0
  length 1.000000
  angle deg
:documentation
     Acclaim Skeleton File
:root
   axis xyz
   order TX TY TZ RX RY RZ
   position 0.000000 0.000000 0.000000
   orientation 0 0 0
:bonedata
   begin
      id 1
      name Spine_dum
      direction 0.000000 1.000000 0.000000
      length 7.539951
      axis 0.0 0.0 0.0 xyz
   end
   begin
      id 2
      name LeftUpLeg_dum
      direction 1.000000 0.000000 0.000000
      length 3.345476
      axis 0.0 0.0 0.0 xyz
   end
   begin
      id 3
      name RightUpLeg_dum
      direction -1.000000 0.000000 0.000000
      length 3.345476
      axis 0.0 0.0 0.0 xyz
   end
   begin
      id 4
      name Spine
      direction 0.000000 1.000000 0.000000
      length 0.000000
      axis 0.0 0.0 0.0 xyz
      dof rx ry rz
   end
   begin
      id 5
      name Spine_dum1
      direction 0.000000 1.000000 0.000000
      length 15.093809
      axis 0.0 0.0 0.0 xyz
   end
   begin
      id 6
      name Spine_dum2
      direction 0.000000 1.000000 0.000000
      length 9.738928
      axis 0.0 0.0 0.0 xyz
   end
   begin
      id 7
      name Spine_dum3
      direction 0.000000 1.000000 0.000000
      length 9.738928
      axis 0.0 0.0 0.0 xyz
   end
   begin
      id 8
      name Head
      direction 0.000000 1.000000 0.000000
      length 4.527550
      axis 0.0 0.0 0.0 xyz
      dof rx ry rz
   end
   begin
      id 9
      name LeftShoulder
      direction 1.000000 0.000000 0.000000
      length 7.084015
      axis 0.0 0.0 -90.0 xyz
      dof rx ry rz
   end
   begin
      id 10
      name LeftArm
      direction 1.000000 0.000000 0.000000
      length 10.259319
      axis 0.0 0.0 -90.0 xyz
      dof rx ry rz
   end
   begin
      id 11
      name LeftForeArm
      direction 1.000000 0.000000 0.000000
      length 9.896984
      axis 0.0 0.0 -90.0 xyz
      dof ry rz rx
   end
   begin
      id 12
      name LeftHand
      direction 0.000000 0.000000 0.000000
      length 0.000000
      axis 0.0 0.0 -90.0 xyz
      dof rx ry rz
   end
   begin
      id 13
      name LeftHand_dum1
      direction 0.000000 0.000000 0.000000
      length 0.000000
      axis 0.0 0.0 -90.0 xyz
   end
   begin
      id 14
      name LeftHand_dum2
      direction 1.000000 0.000000 0.000000
      length 3.937000
      axis 0.0 0.0 -90.0 xyz
   end
   begin
      id 15
      name LeftHandThumb1
      direction 0.000000 0.000000 1.000000
      length 3.937000
      axis 0.0 0.0 -90.0 xyz
      dof rx rz ry
   end
   begin
      id 16
      name RightShoulder
      direction -1.000000 0.000000 0.000000
      length 7.084015
      axis 0.0 0.0 90.0 xyz
      dof rx ry rz
   end
   begin
      id 17
      name RightArm
      direction -1.000000 0.000000 0.000000
      length 10.259319
      axis 0.0 0.0 90.0 xyz
      dof rx ry rz
   end
   begin
      id 18
      name RightForeArm
      direction -1.000000 0.000000 0.000000
      length 9.896984
      axis 0.0 0.0 90.0 xyz
      dof ry rz rx
   end
   begin
      id 19
      name RightHand
      direction 0.000000 0.000000 0.000000
      length 0.000000
      axis 0.0 0.0 90.0 xyz
      dof rx ry rz
   end
   begin
      id 20
      name RightHand_dum1
      direction 0.000000 0.000000 0.000000
      length 0.000000
      axis 0.0 0.0 90.0 xyz
   end
   begin
      id 21
      name RightHand_dum2
      direction -1.000000 0.000000 0.000000
      length 3.937000
      axis 0.0 0.0 90.0 xyz
   end
   begin
      id 22
      name RightHandThumb1
      direction 0.000000 0.000000 1.000000
      length 3.937000
      axis 0.0 0.0 90.0 xyz
      dof rx rz ry
   end
   begin
      id 23
      name LeftUpLeg
      direction 0.000000 -1.000000 0.000000
      length 19.114733
      axis 0.0 0.0 0.0 xyz
      dof rx ry rz
   end
   begin
      id 24
      name LeftLeg
      direction 0.000000 -1.000000 0.000000
      length 16.045604
      axis 0.0 0.0 0.0 xyz
      dof rx ry rz
   end
   begin
      id 25
      name LeftFoot
      direction 0.000000 -0.258819 0.965926
      length 5.543155
      axis 15.0 0.0 0.0 xyz
      dof rx ry rz
   end
   begin
      id 26
      name LeftToeBase
      direction 0.000000 0.000000 1.000000
      length 2.952750
      axis 0.0 0.0 0.0 xyz
      dof rx ry rz
   end
   begin
      id 27
      name RightUpLeg
      direction 0.000000 -1.000000 0.000000
      length 19.114733
      axis 0.0 0.0 0.0 xyz
      dof rx ry rz
   end
   begin
      id 28
      name RightLeg
      direction 0.000000 -1.000000 0.000000
      length 16.045604
      axis 0.0 0.0 0.0 xyz
      dof rx ry rz
   end
   begin
      id 29
      name RightFoot
      direction 0.000000 -0.258819 0.965926
      length 5.543155
      axis 15.0 0.0 0.0 xyz
      dof rx ry rz
   end
   begin
      id 30
      name RightToeBase
      direction 0.000000 0.000000 1.000000
      length 2.952750
      axis 0.0 0.0 0.0 xyz
      dof rx ry rz
   end
:hierarchy
   begin
      root Spine_dum LeftUpLeg_dum RightUpLeg_dum
      Spine_dum Spine
      LeftUpLeg_dum LeftUpLeg
      RightUpLeg_dum RightUpLeg
      Spine Spine_dum1 Spine_dum2 Spine_dum3
      Spine_dum1 Head
      Spine_dum2 LeftShoulder
      Spine_dum3 RightShoulder
      LeftShoulder LeftArm
      LeftArm LeftForeArm
      LeftForeArm LeftHand
      LeftHand LeftHand_dum1 LeftHand_dum2
      LeftHand_dum1 LeftHandThumb1
      RightShoulder RightArm
      RightArm RightForeArm
      RightForeArm RightHand
      RightHand RightHand_dum1 RightHand_dum2
      RightHand_dum1 RightHandThumb1
      LeftUpLeg LeftLeg
      LeftLeg LeftFoot
      LeftFoot LeftToeBase
      RightUpLeg RightLeg
      RightLeg RightFoot
      RightFoot RightToeBase
   end

# File created by Blade
# Date/Time:  Tue Jan 27 17:01:38 2015
# Frame Rate: 120.000 fps
#------------------------------------------------------
:FULLY-SPECIFIED
:DEGREES
2899
root -1.775412 36.796748 6.984588 10.823052 15.808232 0.341444
Spine -13.507443 19.196786 -10.911181
Head 6.082454 0.260792 3.649262
LeftShoulder -14.856992 -8.901939 1.808200
LeftArm -14.554601 -59.552224 -43.996099
LeftForeArm -64.910674 -0.000000 132.909869
LeftHand 9.859959 -0.000000 -20.810959
LeftHandThumb1 -26.253704 0.000000 33.147579
RightShoulder -2.031379 -23.501871 -4.637253
RightArm 25.012765 -34.756110 57.012443
RightForeArm -148.261501 0.000000 37.050074
RightHand -2.106245 -0.000000 -2.786146
RightHandThumb1 -24.326973 -0.000000 -32.862282
LeftUpLeg -8.364001 3.809365 6.733808
LeftLeg 6.919857 -0.000000 -0.000000
LeftFoot -13.827887 -1.511899 -21.537527
LeftToeBase 14.533994 -0.000000 -0.000000
RightUpLeg -5.785199 -17.062093 1.840993
RightLeg 9.930300 -0.000000 -0.000000
RightFoot -20.476339 -10.146094 16.482859
RightToeBase 10.177674 -0.000000 -0.000000
2900
root -1.776315 36.798554 6.983371 10.819459 15.818712 0.335547
Spine -13.515658 19.221318 -10.899796
Head 6.130675 0.186890 3.725198
LeftShoulder -14.858870 -8.882131 1.735751
LeftArm -14.769992 -59.359198 -43.804434
LeftForeArm -64.880371 0.000000 132.113589
LeftHand 9.863783 -0.000000 -19.909182
LeftHandThumb1 -26.253704 0.000000 33.147579
RightShoulder -2.045842 -23.513690 -4.628261
RightArm 24.911333 -34.694691 57.162222
RightForeArm -148.219145 -0.000000 37.037226
RightHand -2.094686 -0.000000 -2.754261
RightHandThumb1 -24.326973 -0.000000 -32.862282
LeftUpLeg -8.357438 3.804986 6.739848
LeftLeg 6.898829 -0.000000 -0.000000
LeftFoot -13.815607 -1.492189 -21.514770
LeftToeBase 14.571215 -0.000000 -0.000000
RightUpLeg -5.777552 -17.105679 1.847571
RightLeg 9.913806 -0.000000 -0.000000
RightFoot -20.441525 -10.109702 16.480955
RightToeBase 10.165702 -0.000000 -0.000000
2901
root -1.777752 36.799990 6.983322 10.812305 15.829415 0.327893
Spine -13.508319 19.233565 -10.873304
Head 6.164016 0.106832 3.772640
LeftShoulder -14.817467 -8.948845 1.670401
LeftArm -15.235932 -59.125120 -43.328471
LeftForeArm -64.782828 -0.000000 131.173453
LeftHand 9.858884 -0.000000 -19.137976
LeftHandThumb1 -26.253704 0.000000 33.147579
RightShoulder -2.057304 -23.529800 -4.633552
RightArm 24.851894 -34.680920 57.263207
RightForeArm -148.169398 -0.000000 37.030791
RightHand -2.078101 -0.000000 -2.685174
RightHandThumb1 -24.326973 -0.000000 -32.862282
LeftUpLeg -8.346698 3.807095 6.749906
LeftLeg 6.880284 -0.000000 -0.000000
LeftFoot -13.796399 -1.492103 -21.498889
LeftToeBase 14.560667 -0.000000 -0.000000
RightUpLeg -5.764341 -17.127726 1.857014
RightLeg 9.899454 -0.000000 -0.000000
RightFoot -20.414599 -10.147932 16.479426
RightToeBase 10.089092 -0.000000 -0.000000
2902
root -1.778592 36.801114 6.983017 10.803986 15.834664 0.322543
Spine -13.502083 19.242607 -10.844290
Head 6.196713 0.085692 3.805622
LeftShoulder -14.760772 -8.948530 1.579862
LeftArm -15.721004 -58.889528 -42.787242
LeftForeArm -64.765384 -0.000000 130.144887
LeftHand 9.802464 0.000000 -18.289403
LeftHandThumb1 -26.253704 0.000000 33.147579
RightShoulder -2.058840 -23.569199 -4.632204
RightArm 24.811663 -34.643047 57.336214
RightForeArm -148.136340 -0.000000 37.030241
RightHand -2.040146 -0.000000 -2.689467
RightHandThumb1 -24.326973 -0.000000 -32.862282
LeftUpLeg -8.337938 3.814158 6.755690
LeftLeg 6.871840 -0.000000 -0.000000
LeftFoot -13.778685 -1.498152 -21.494582
LeftToeBase 14.534515 -0.000000 -0.000000
RightUpLeg -5.746124 -17.144135 1.862189
RightLeg 9.869381 -0.000000 -0.000000
RightFoot -20.400619 -10.086253 16.481015
RightToeBase 10.178897 -0.000000 -0.000000
2903
root -1.777202 36.800789 6.985825 10.748693 15.810956 0.301214
Spine -13.451871 19.304071 -10.781697
Head 6.208361 0.063517 3.799836
LeftShoulder -14.701733 -8.959785 1.497568
LeftArm -16.123878 -58.602722 -42.344668
LeftForeArm -64.589560 -0.000000 129.013551
LeftHand 9.679601 -0.000000 -17.371710
LeftHandThumb1 -26.253704 0.000000 33.147579
RightShoulder -2.072702 -23.615546 -4.639574
RightArm 24.800275 -34.629745 57.356034
RightForeArm -148.121274 -0.000000 37.044152
RightHand -1.995425 -0.000000 -2.699786
RightHandThumb1 -24.326973 -0.000000 -32.862282
LeftUpLeg -8.264266 3.835246 6.773774
LeftLeg 6.841111 -0.000000 -0.000000
LeftFoot -13.787762 -1.494030 -21.493293
LeftToeBase 14.564940 -0.000000 -0.000000
RightUpLeg -5.682508 -17.126033 1.860157
RightLeg 9.850949 -0.000000 -0.000000
RightFoot -20.381866 -10.079619 16.466377
RightToeBase 10.185222 -0.000000 -0.000000
2904
root -1.777156 36.800503 6.987817 10.702401 15.804823 0.299387
Spine -13.395115 19.334749 -10.738184
Head 6.248040 0.043891 3.799483
LeftShoulder -14.624181 -8.958850 1.402348
LeftArm -16.620330 -58.268325 -41.774207
LeftForeArm -64.368899 0.000000 127.793958
LeftHand 9.520041 0.000000 -16.293190
LeftHandThumb1 -26.253704 0.000000 33.147579
RightShoulder -2.068473 -23.631483 -4.650283
RightArm 24.761442 -34.627774 57.394252
RightForeArm -148.194316 -0.000000 37.027673
RightHand -2.113362 0.000000 -2.780282
RightHandThumb1 -24.326973 -0.000000 -32.862282
LeftUpLeg -8.207839 3.862773 6.776108
LeftLeg 6.825656 -0.000000 -0.000000
LeftFoot -13.777582 -1.528799 -21.505607
LeftToeBase 14.586418 -0.000000 -0.000000
RightUpLeg -5.624112 -17.118544 1.847947
RightLeg 9.834442 -0.000000 -0.000000
RightFoot -20.376340 -10.087608 16.470607
RightToeBase 10.181510 -0.000000 -0.000000
2905
root -1.778084 36.800694 6.986904 10.688530 15.822466 0.306160
Spine -13.361944 19.332211 -10.711641
Head 6.243243 0.032568 3.818070
LeftShoulder -14.573681 -8.929448 1.320658
LeftArm -16.938384 -57.923582 -41.377410
LeftForeArm -64.132623 0.000000 126.451095
LeftHand 9.445134 -0.000000 -15.118465
LeftHandThumb1 -26.253704 0.000000 33.147579
RightShoulder -2.075763 -23.652993 -4.650136
RightArm 24.761905 -34.650420 57.387748
RightForeArm -148.207586 -0.000000 37.031748
RightHand -2.121959 0.000000 -2.877295
RightHandThumb1 -24.326973 -0.000000 -32.862282
LeftUpLeg -8.198926 3.848872 6.774263
LeftLeg 6.826181 -0.000000 -0.000000
LeftFoot -13.762723 -1.524559 -21.494587
LeftToeBase 14.559835 -0.000000 -0.000000
RightUpLeg -5.599699 -17.115930 1.840819
RightLeg 9.814975 -0.000000 -0.000000
RightFoot -20.376683 -10.108013 16.477439
RightToeBase 10.181162 -0.000000 -0.000000
